MutatorSansInstance_800-800.ufo
<glyph name="comma" format="2">
  <advance width="292"/>
  <unicode hex="002C"/>
  <outline>
    <contour>
      <point x="227" y="0" type="line"/>
      <point x="227" y="280" type="line"/>
      <point x="65" y="280" type="line"/>
      <point x="65" y="0" type="line"/>
      <point x="135" y="-14" type="line"/>
      <point x="126" y="12" type="line"/>
      <point x="104" y="-133" type="line"/>
      <point x="164" y="-135" type="line"/>
    </contour>
  </outline>
</glyph>
<glyph name="period" format="2">
  <advance width="292"/>
  <unicode hex="002E"/>
  <outline>
    <contour>
      <point x="65" y="0" type="line"/>
      <point x="227" y="0" type="line"/>
      <point x="227" y="280" type="line"/>
      <point x="65" y="280" type="line"/>
    </contour>
  </outline>
</glyph>
<glyph name="A" format="2">
  <advance width="1152"/>
  <unicode hex="0041"/>
  <outline>
    <contour>
      <point x="25" y="0" type="line"/>
      <point x="284" y="0" type="line"/>
      <point x="570" y="780" type="line"/>
      <point x="349" y="780" type="line"/>
    </contour>
    <contour>
      <point x="196" y="138" type="line"/>
      <point x="860" y="138" type="line"/>
      <point x="860" y="319" type="line"/>
      <point x="196" y="319" type="line"/>
    </contour>
    <contour>
      <point x="763" y="0" type="line"/>
      <point x="1129" y="0" type="line"/>
      <point x="804" y="780" type="line"/>
      <point x="455" y="780" type="line"/>
    </contour>
    <contour>
      <point x="394" y="565" type="line"/>
      <point x="717" y="565" type="line"/>
      <point x="717" y="780" type="line"/>
      <point x="394" y="780" type="line"/>
    </contour>
  </outline>
</glyph>
<glyph name="B" format="2">
  <advance width="1151"/>
  <unicode hex="0042"/>
  <outline>
    <contour>
      <point x="65" y="0" type="line"/>
      <point x="391" y="0" type="line"/>
      <point x="391" y="781" type="line"/>
      <point x="65" y="781" type="line"/>
    </contour>
    <contour>
      <point x="358" y="338" type="line"/>
      <point x="705" y="338" type="line" smooth="yes"/>
      <point x="760" y="338"/>
      <point x="795" y="319"/>
      <point x="795" y="266" type="curve" smooth="yes"/>
      <point x="795" y="218"/>
      <point x="760" y="198"/>
      <point x="704" y="198" type="curve" smooth="yes"/>
      <point x="358" y="198" type="line"/>
      <point x="358" y="0" type="line"/>
      <point x="822" y="0" type="line" smooth="yes"/>
      <point x="1058" y="0"/>
      <point x="1122" y="92"/>
      <point x="1122" y="221" type="curve" smooth="yes"/>
      <point x="1122" y="339"/>
      <point x="1055" y="403"/>
      <point x="956" y="420" type="curve"/>
      <point x="933" y="371" type="line"/>
      <point x="1013" y="388"/>
      <point x="1091" y="443"/>
      <point x="1091" y="554" type="curve" smooth="yes"/>
      <point x="1091" y="692"/>
      <point x="1011" y="780"/>
      <point x="772" y="780" type="curve" smooth="yes"/>
      <point x="358" y="780" type="line"/>
      <point x="358" y="592" type="line"/>
      <point x="670" y="592" type="line" smooth="yes"/>
      <point x="731" y="592"/>
      <point x="766" y="572"/>
      <point x="766" y="525" type="curve" smooth="yes"/>
      <point x="766" y="467"/>
      <point x="730" y="456"/>
      <point x="670" y="456" type="curve" smooth="yes"/>
      <point x="358" y="456" type="line"/>
    </contour>
  </outline>
</glyph>
<glyph name="C" format="2">
  <advance width="1239"/>
  <unicode hex="0043"/>
  <outline>
    <contour>
      <point x="867" y="347" type="line"/>
      <point x="850" y="248"/>
      <point x="775" y="208"/>
      <point x="660" y="208" type="curve" smooth="yes"/>
      <point x="590" y="208" type="line" smooth="yes"/>
      <point x="459" y="208"/>
      <point x="380" y="262"/>
      <point x="380" y="393" type="curve" smooth="yes"/>
      <point x="380" y="520"/>
      <point x="459" y="572"/>
      <point x="590" y="572" type="curve" smooth="yes"/>
      <point x="660" y="572" type="line" smooth="yes"/>
      <point x="774" y="572"/>
      <point x="849" y="534"/>
      <point x="867" y="440" type="curve"/>
      <point x="1195" y="475" type="line"/>
      <point x="1157" y="689"/>
      <point x="972" y="790"/>
      <point x="694" y="790" type="curve" smooth="yes"/>
      <point x="554" y="790" type="line" smooth="yes"/>
      <point x="240" y="790"/>
      <point x="44" y="663"/>
      <point x="44" y="393" type="curve" smooth="yes"/>
      <point x="44" y="120"/>
      <point x="240" y="-10"/>
      <point x="554" y="-10" type="curve" smooth="yes"/>
      <point x="694" y="-10" type="line" smooth="yes"/>
      <point x="973" y="-10"/>
      <point x="1160" y="95"/>
      <point x="1196" y="314" type="curve"/>
    </contour>
  </outline>
</glyph>
<glyph name="D" format="2">
  <advance width="1114"/>
  <unicode hex="0044"/>
  <outline>
    <contour>
      <point x="65" y="0" type="line"/>
      <point x="388" y="0" type="line"/>
      <point x="388" y="780" type="line"/>
      <point x="65" y="780" type="line"/>
    </contour>
    <contour>
      <point x="343" y="570" type="line"/>
      <point x="523" y="570" type="line" smooth="yes"/>
      <point x="654" y="570"/>
      <point x="735" y="520"/>
      <point x="735" y="393" type="curve" smooth="yes"/>
      <point x="735" y="262"/>
      <point x="654" y="210"/>
      <point x="523" y="210" type="curve" smooth="yes"/>
      <point x="342" y="210" type="line"/>
      <point x="342" y="0" type="line"/>
      <point x="558" y="0" type="line" smooth="yes"/>
      <point x="872" y="0"/>
      <point x="1070" y="121"/>
      <point x="1070" y="393" type="curve" smooth="yes"/>
      <point x="1070" y="662"/>
      <point x="872" y="780"/>
      <point x="558" y="780" type="curve" smooth="yes"/>
      <point x="343" y="780" type="line"/>
    </contour>
  </outline>
</glyph>
<glyph name="E" format="2">
  <advance width="1062"/>
  <unicode hex="0045"/>
  <anchor x="516" y="822" name="top"/>
  <outline>
    <contour>
      <point x="66" y="0" type="line"/>
      <point x="390" y="0" type="line"/>
      <point x="390" y="780" type="line"/>
      <point x="66" y="780" type="line"/>
    </contour>
    <contour>
      <point x="142" y="557" type="line"/>
      <point x="998" y="557" type="line"/>
      <point x="998" y="780" type="line"/>
      <point x="142" y="780" type="line"/>
    </contour>
    <contour>
      <point x="142" y="0" type="line"/>
      <point x="998" y="0" type="line"/>
      <point x="998" y="223" type="line"/>
      <point x="142" y="223" type="line"/>
    </contour>
    <contour>
      <point x="142" y="319" type="line"/>
      <point x="835" y="319" type="line"/>
      <point x="835" y="462" type="line"/>
      <point x="142" y="462" type="line"/>
    </contour>
  </outline>
</glyph>
<glyph name="F" format="2">
  <advance width="1064"/>
  <unicode hex="0046"/>
  <outline>
    <contour>
      <point x="65" y="0" type="line"/>
      <point x="393" y="0" type="line"/>
      <point x="393" y="780" type="line"/>
      <point x="65" y="780" type="line"/>
    </contour>
    <contour>
      <point x="142" y="560" type="line"/>
      <point x="999" y="560" type="line"/>
      <point x="999" y="780" type="line"/>
      <point x="142" y="780" type="line"/>
    </contour>
    <contour>
      <point x="142" y="254" type="line"/>
      <point x="920" y="254" type="line"/>
      <point x="920" y="442" type="line"/>
      <point x="142" y="442" type="line"/>
    </contour>
  </outline>
</glyph>
<glyph name="G" format="2">
  <advance width="1275"/>
  <unicode hex="0047"/>
  <outline>
    <contour>
      <point x="562" y="310" type="line"/>
      <point x="887" y="310" type="line"/>
      <point x="887" y="216" type="line"/>
      <point x="1035" y="0" type="line"/>
      <point x="1212" y="0" type="line"/>
      <point x="1212" y="401" type="line"/>
      <point x="562" y="401" type="line"/>
    </contour>
    <contour>
      <point x="879" y="354" type="line"/>
      <point x="861" y="255"/>
      <point x="785" y="208"/>
      <point x="668" y="208" type="curve" smooth="yes"/>
      <point x="590" y="208" type="line" smooth="yes"/>
      <point x="459" y="208"/>
      <point x="380" y="262"/>
      <point x="380" y="393" type="curve" smooth="yes"/>
      <point x="380" y="520"/>
      <point x="460" y="572"/>
      <point x="592" y="572" type="curve" smooth="yes"/>
      <point x="670" y="572" type="line" smooth="yes"/>
      <point x="785" y="572"/>
      <point x="860" y="534"/>
      <point x="878" y="440" type="curve"/>
      <point x="1201" y="475" type="line"/>
      <point x="1164" y="689"/>
      <point x="979" y="790"/>
      <point x="702" y="790" type="curve" smooth="yes"/>
      <point x="554" y="790" type="line" smooth="yes"/>
      <point x="241" y="790"/>
      <point x="44" y="663"/>
      <point x="44" y="393" type="curve" smooth="yes"/>
      <point x="44" y="120"/>
      <point x="240" y="-10"/>
      <point x="554" y="-10" type="curve" smooth="yes"/>
      <point x="587" y="-10" type="line" smooth="yes"/>
      <point x="865" y="-10"/>
      <point x="1049" y="101"/>
      <point x="1084" y="321" type="curve"/>
    </contour>
  </outline>
</glyph>
<glyph name="H" format="2">
  <advance width="1191"/>
  <unicode hex="0048"/>
  <outline>
    <contour>
      <point x="65" y="0" type="line"/>
      <point x="393" y="0" type="line"/>
      <point x="393" y="780" type="line"/>
      <point x="65" y="780" type="line"/>
    </contour>
    <contour>
      <point x="196" y="281" type="line"/>
      <point x="997" y="281" type="line"/>
      <point x="997" y="496" type="line"/>
      <point x="196" y="496" type="line"/>
    </contour>
    <contour>
      <point x="798" y="0" type="line"/>
      <point x="1126" y="0" type="line"/>
      <point x="1126" y="780" type="line"/>
      <point x="798" y="780" type="line"/>
    </contour>
  </outline>
</glyph>
<glyph name="I" format="2">
  <advance width="904"/>
  <unicode hex="0049"/>
  <outline>
    <contour>
      <point x="289" y="0" type="line"/>
      <point x="617" y="0" type="line"/>
      <point x="617" y="780" type="line"/>
      <point x="289" y="780" type="line"/>
    </contour>
    <contour>
      <point x="65" y="555" type="line"/>
      <point x="839" y="555" type="line"/>
      <point x="839" y="780" type="line"/>
      <point x="65" y="780" type="line"/>
    </contour>
    <contour>
      <point x="65" y="0" type="line"/>
      <point x="839" y="0" type="line"/>
      <point x="839" y="225" type="line"/>
      <point x="65" y="225" type="line"/>
    </contour>
  </outline>
</glyph>
<glyph name="J" format="2">
  <advance width="830"/>
  <unicode hex="004A"/>
  <outline>
    <contour>
      <point x="231" y="-10" type="curve" smooth="yes"/>
      <point x="559" y="-10"/>
      <point x="765" y="122"/>
      <point x="765" y="397" type="curve" smooth="yes"/>
      <point x="765" y="780" type="line"/>
      <point x="430" y="780" type="line"/>
      <point x="430" y="427" type="line" smooth="yes"/>
      <point x="430" y="288"/>
      <point x="352" y="231"/>
      <point x="226" y="231" type="curve" smooth="yes"/>
      <point x="196" y="231"/>
      <point x="151" y="233"/>
      <point x="103" y="241" type="curve"/>
      <point x="65" y="5" type="line"/>
      <point x="116" y="-6"/>
      <point x="171" y="-10"/>
    </contour>
  </outline>
</glyph>
<glyph name="K" format="2">
  <advance width="1154"/>
  <unicode hex="004B"/>
  <outline>
    <contour>
      <point x="65" y="0" type="line"/>
      <point x="393" y="0" type="line"/>
      <point x="393" y="780" type="line"/>
      <point x="65" y="780" type="line"/>
    </contour>
    <contour>
      <point x="284" y="310" type="line"/>
      <point x="412" y="310" type="line"/>
      <point x="707" y="0" type="line"/>
      <point x="1125" y="0" type="line"/>
      <point x="679" y="493" type="line"/>
      <point x="417" y="429" type="line"/>
      <point x="284" y="429" type="line"/>
    </contour>
    <contour>
      <point x="391" y="405" type="line"/>
      <point x="573" y="316" type="line"/>
      <point x="1114" y="780" type="line"/>
      <point x="740" y="780" type="line"/>
    </contour>
  </outline>
</glyph>
<glyph name="L" format="2">
  <advance width="943"/>
  <unicode hex="004C"/>
  <outline>
    <contour>
      <point x="65" y="0" type="line"/>
      <point x="393" y="0" type="line"/>
      <point x="393" y="780" type="line"/>
      <point x="65" y="780" type="line"/>
    </contour>
    <contour>
      <point x="142" y="0" type="line"/>
      <point x="919" y="0" type="line"/>
      <point x="919" y="226" type="line"/>
      <point x="142" y="226" type="line"/>
    </contour>
  </outline>
</glyph>
<glyph name="M" format="2">
  <advance width="1187"/>
  <unicode hex="004D"/>
  <outline>
    <contour>
      <point x="65" y="0" type="line"/>
      <point x="318" y="0" type="line"/>
      <point x="318" y="780" type="line"/>
      <point x="65" y="780" type="line"/>
    </contour>
    <contour>
      <point x="1122" y="0" type="line"/>
      <point x="1122" y="780" type="line"/>
      <point x="870" y="780" type="line"/>
      <point x="870" y="0" type="line"/>
    </contour>
    <contour>
      <point x="969" y="459" type="line"/>
      <point x="870" y="780" type="line"/>
      <point x="571" y="494" type="line"/>
      <point x="616" y="494" type="line"/>
      <point x="318" y="780" type="line"/>
      <point x="218" y="459" type="line"/>
      <point x="541" y="156" type="line"/>
      <point x="646" y="156" type="line"/>
    </contour>
  </outline>
</glyph>
<glyph name="N" format="2">
  <advance width="1182"/>
  <unicode hex="004E"/>
  <outline>
    <contour>
      <point x="65" y="0" type="line"/>
      <point x="317" y="0" type="line"/>
      <point x="317" y="780" type="line"/>
      <point x="65" y="780" type="line"/>
    </contour>
    <contour>
      <point x="211" y="506" type="line"/>
      <point x="864" y="0" type="line"/>
      <point x="970" y="274" type="line"/>
      <point x="317" y="780" type="line"/>
    </contour>
    <contour>
      <point x="864" y="0" type="line"/>
      <point x="1117" y="0" type="line"/>
      <point x="1117" y="780" type="line"/>
      <point x="864" y="780" type="line"/>
    </contour>
  </outline>
</glyph>
<glyph name="O" format="2">
  <advance width="1250"/>
  <unicode hex="004F"/>
  <outline>
    <contour>
      <point x="554" y="-10" type="curve" smooth="yes"/>
      <point x="696" y="-10" type="line" smooth="yes"/>
      <point x="1009" y="-10"/>
      <point x="1207" y="120"/>
      <point x="1207" y="393" type="curve" smooth="yes"/>
      <point x="1207" y="663"/>
      <point x="1009" y="790"/>
      <point x="696" y="790" type="curve" smooth="yes"/>
      <point x="554" y="790" type="line" smooth="yes"/>
      <point x="240" y="790"/>
      <point x="44" y="663"/>
      <point x="44" y="393" type="curve" smooth="yes"/>
      <point x="44" y="120"/>
      <point x="240" y="-10"/>
    </contour>
    <contour>
      <point x="590" y="208" type="line" smooth="yes"/>
      <point x="459" y="208"/>
      <point x="380" y="262"/>
      <point x="380" y="393" type="curve" smooth="yes"/>
      <point x="380" y="520"/>
      <point x="459" y="572"/>
      <point x="590" y="572" type="curve" smooth="yes"/>
      <point x="661" y="572" type="line" smooth="yes"/>
      <point x="792" y="572"/>
      <point x="871" y="520"/>
      <point x="871" y="393" type="curve" smooth="yes"/>
      <point x="871" y="262"/>
      <point x="792" y="208"/>
      <point x="661" y="208" type="curve" smooth="yes"/>
    </contour>
  </outline>
</glyph>
<glyph name="P" format="2">
  <advance width="1085"/>
  <unicode hex="0050"/>
  <outline>
    <contour>
      <point x="65" y="0" type="line"/>
      <point x="393" y="0" type="line"/>
      <point x="393" y="780" type="line"/>
      <point x="65" y="780" type="line"/>
    </contour>
    <contour>
      <point x="269" y="548" type="line"/>
      <point x="629" y="548" type="line" smooth="yes"/>
      <point x="727" y="548"/>
      <point x="764" y="521"/>
      <point x="764" y="456" type="curve" smooth="yes"/>
      <point x="764" y="385"/>
      <point x="727" y="361"/>
      <point x="629" y="361" type="curve" smooth="yes"/>
      <point x="269" y="361" type="line"/>
      <point x="269" y="128" type="line"/>
      <point x="609" y="128" type="line" smooth="yes"/>
      <point x="954" y="128"/>
      <point x="1061" y="242"/>
      <point x="1061" y="456" type="curve" smooth="yes"/>
      <point x="1061" y="667"/>
      <point x="954" y="780"/>
      <point x="610" y="780" type="curve" smooth="yes"/>
      <point x="269" y="780" type="line"/>
    </contour>
  </outline>
</glyph>
<glyph name="Q" format="2">
  <advance width="1250"/>
  <unicode hex="0051"/>
  <outline>
    <contour>
      <point x="550" y="-130" type="line"/>
      <point x="878" y="-130" type="line"/>
      <point x="751" y="139" type="line"/>
      <point x="430" y="135" type="line"/>
    </contour>
    <component base="O"/>
  </outline>
</glyph>
<glyph name="R" format="2">
  <advance width="1097"/>
  <unicode hex="0052"/>
  <outline>
    <contour>
      <point x="712" y="0" type="line"/>
      <point x="1051" y="0" type="line"/>
      <point x="988" y="108" type="line" smooth="yes"/>
      <point x="944" y="173"/>
      <point x="895" y="221"/>
      <point x="814" y="220" type="curve"/>
      <point x="592" y="220" type="line"/>
    </contour>
    <contour>
      <point x="65" y="0" type="line"/>
      <point x="393" y="0" type="line"/>
      <point x="393" y="780" type="line"/>
      <point x="65" y="780" type="line"/>
    </contour>
    <contour>
      <point x="269" y="548" type="line"/>
      <point x="632" y="548" type="line" smooth="yes"/>
      <point x="729" y="548"/>
      <point x="764" y="521"/>
      <point x="764" y="456" type="curve" smooth="yes"/>
      <point x="764" y="385"/>
      <point x="729" y="361"/>
      <point x="632" y="361" type="curve" smooth="yes"/>
      <point x="269" y="361" type="line"/>
      <point x="269" y="176" type="line"/>
      <point x="612" y="176" type="line" smooth="yes"/>
      <point x="954" y="176"/>
      <point x="1063" y="282"/>
      <point x="1063" y="480" type="curve" smooth="yes"/>
      <point x="1063" y="675"/>
      <point x="952" y="780"/>
      <point x="612" y="780" type="curve" smooth="yes"/>
      <point x="269" y="780" type="line"/>
    </contour>
  </outline>
</glyph>
<glyph name="S" format="2">
  <advance width="1104"/>
  <unicode hex="0053"/>
  <outline>
    <contour>
      <point x="1062" y="239" type="curve" smooth="yes"/>
      <point x="1062" y="430"/>
      <point x="950" y="488"/>
      <point x="658" y="499" type="curve" smooth="yes"/>
      <point x="489" y="505" type="line" smooth="yes"/>
      <point x="354" y="511"/>
      <point x="323" y="519"/>
      <point x="323" y="547" type="curve" smooth="yes"/>
      <point x="323" y="574"/>
      <point x="360" y="588"/>
      <point x="471" y="588" type="curve" smooth="yes"/>
      <point x="615" y="588" type="line" smooth="yes"/>
      <point x="759" y="588"/>
      <point x="889" y="574"/>
      <point x="987" y="556" type="curve"/>
      <point x="1019" y="748" type="line"/>
      <point x="922" y="769"/>
      <point x="761" y="790"/>
      <point x="655" y="790" type="curve" smooth="yes"/>
      <point x="560" y="790" type="line" smooth="yes"/>
      <point x="195" y="790"/>
      <point x="49" y="708"/>
      <point x="49" y="528" type="curve" smooth="yes"/>
      <point x="49" y="357"/>
      <point x="179" y="295"/>
      <point x="454" y="284" type="curve" smooth="yes"/>
      <point x="615" y="277" type="line" smooth="yes"/>
      <point x="744" y="270"/>
      <point x="780" y="265"/>
      <point x="780" y="234" type="curve" smooth="yes"/>
      <point x="780" y="207"/>
      <point x="741" y="193"/>
      <point x="620" y="193" type="curve" smooth="yes"/>
      <point x="484" y="193" type="line" smooth="yes"/>
      <point x="327" y="193"/>
      <point x="186" y="206"/>
      <point x="77" y="227" type="curve"/>
      <point x="45" y="32" type="line"/>
      <point x="157" y="10"/>
      <point x="330" y="-10"/>
      <point x="445" y="-10" type="curve" smooth="yes"/>
      <point x="551" y="-10" type="line" smooth="yes"/>
      <point x="942" y="-10"/>
      <point x="1062" y="89"/>
    </contour>
  </outline>
</glyph>
<glyph name="T" format="2">
  <advance width="1106"/>
  <unicode hex="0054"/>
  <outline>
    <contour>
      <point x="389" y="0" type="line"/>
      <point x="717" y="0" type="line"/>
      <point x="717" y="780" type="line"/>
      <point x="389" y="780" type="line"/>
    </contour>
    <contour>
      <point x="24" y="534" type="line"/>
      <point x="1082" y="534" type="line"/>
      <point x="1082" y="780" type="line"/>
      <point x="24" y="780" type="line"/>
    </contour>
  </outline>
</glyph>
<glyph name="U" format="2">
  <advance width="1178"/>
  <unicode hex="0055"/>
  <outline>
    <contour>
      <point x="588" y="-10" type="curve" smooth="yes"/>
      <point x="905" y="-10"/>
      <point x="1094" y="121"/>
      <point x="1094" y="396" type="curve" smooth="yes"/>
      <point x="1094" y="780" type="line"/>
      <point x="759" y="780" type="line"/>
      <point x="759" y="388" type="line" smooth="yes"/>
      <point x="759" y="275"/>
      <point x="694" y="228"/>
      <point x="589" y="228" type="curve" smooth="yes"/>
      <point x="484" y="228"/>
      <point x="420" y="275"/>
      <point x="420" y="388" type="curve" smooth="yes"/>
      <point x="420" y="780" type="line"/>
      <point x="84" y="780" type="line"/>
      <point x="84" y="396" type="line" smooth="yes"/>
      <point x="84" y="121"/>
      <point x="272" y="-10"/>
    </contour>
  </outline>
</glyph>
<glyph name="V" format="2">
  <advance width="1166"/>
  <unicode hex="0056"/>
  <outline>
    <contour>
      <point x="1145" y="780" type="line"/>
      <point x="885" y="780" type="line"/>
      <point x="575" y="0" type="line"/>
      <point x="798" y="0" type="line"/>
    </contour>
    <contour>
      <point x="387" y="780" type="line"/>
      <point x="22" y="780" type="line"/>
      <point x="364" y="0" type="line"/>
      <point x="712" y="0" type="line"/>
    </contour>
    <contour>
      <point x="764" y="215" type="line"/>
      <point x="439" y="215" type="line"/>
      <point x="439" y="0" type="line"/>
      <point x="764" y="0" type="line"/>
    </contour>
  </outline>
</glyph>
<glyph name="W" format="2">
  <advance width="1258"/>
  <unicode hex="0057"/>
  <outline>
    <contour>
      <point x="1236" y="780" type="line"/>
      <point x="944" y="780" type="line"/>
      <point x="838" y="228" type="line"/>
      <point x="862" y="228" type="line"/>
      <point x="753" y="780" type="line"/>
      <point x="538" y="780" type="line"/>
      <point x="437" y="227" type="line"/>
      <point x="462" y="227" type="line"/>
      <point x="354" y="780" type="line"/>
      <point x="22" y="780" type="line"/>
      <point x="195" y="0" type="line"/>
      <point x="529" y="0" type="line"/>
      <point x="632" y="496" type="line"/>
      <point x="581" y="496" type="line"/>
      <point x="700" y="0" type="line"/>
      <point x="1067" y="0" type="line"/>
    </contour>
  </outline>
</glyph>
<glyph name="X" format="2">
  <advance width="1118"/>
  <unicode hex="0058"/>
  <outline>
    <contour>
      <point x="711" y="0" type="line"/>
      <point x="1097" y="0" type="line"/>
      <point x="690" y="455" type="line"/>
      <point x="409" y="780" type="line"/>
      <point x="23" y="780" type="line"/>
      <point x="414" y="365" type="line"/>
    </contour>
    <contour>
      <point x="22" y="0" type="line"/>
      <point x="356" y="0" type="line"/>
      <point x="573" y="325" type="line"/>
      <point x="693" y="330" type="line"/>
      <point x="1095" y="780" type="line"/>
      <point x="760" y="780" type="line"/>
      <point x="532" y="467" type="line"/>
      <point x="406" y="459" type="line"/>
    </contour>
  </outline>
</glyph>
<glyph name="Y" format="2">
  <advance width="1068"/>
  <unicode hex="0059"/>
  <outline>
    <contour>
      <point x="1048" y="780" type="line"/>
      <point x="778" y="780" type="line"/>
      <point x="482" y="207" type="line"/>
      <point x="697" y="202" type="line"/>
    </contour>
    <contour>
      <point x="361" y="780" type="line"/>
      <point x="20" y="780" type="line"/>
      <point x="371" y="202" type="line"/>
      <point x="672" y="207" type="line"/>
    </contour>
    <contour>
      <point x="698" y="330" type="line"/>
      <point x="370" y="330" type="line"/>
      <point x="370" y="0" type="line"/>
      <point x="698" y="0" type="line"/>
    </contour>
  </outline>
</glyph>
<glyph name="Z" format="2">
  <advance width="1131"/>
  <unicode hex="005A"/>
  <outline>
    <contour>
      <point x="65" y="226" type="line"/>
      <point x="461" y="156" type="line"/>
      <point x="1066" y="554" type="line"/>
      <point x="671" y="624" type="line"/>
    </contour>
    <contour>
      <point x="65" y="554" type="line"/>
      <point x="1066" y="554" type="line"/>
      <point x="1066" y="780" type="line"/>
      <point x="65" y="780" type="line"/>
    </contour>
    <contour>
      <point x="65" y="0" type="line"/>
      <point x="1066" y="0" type="line"/>
      <point x="1066" y="226" type="line"/>
      <point x="65" y="226" type="line"/>
    </contour>
  </outline>
</glyph>
